<?xml version="1.0" encoding="UTF-8"?>
<svg id="a" data-name="Layer 1" xmlns="http://www.w3.org/2000/svg" viewBox="0 0 691.6 293.2">
  <path d="m691.6,30V0H0v289.2h52v-17.2c5.1,5,11,9.2,17.6,12.6,11.2,5.7,23.7,8.6,37.6,8.6,17.9,0,33.9-4.4,48-13.2s25.3-20.8,33.4-36c3.5-6.5,6.2-13.3,8.2-20.4,2,7.1,4.6,13.9,8,20.4,8,15.2,19,27.2,33,36s29.8,13.2,47.4,13.2c13.9,0,26.3-2.8,37.4-8.4,7.2-3.6,13.3-8.2,18.6-13.6v18h52.8V110l66.8,179.2h38l41.7-113,41.1,113h38l72-193.2h-52.8l-39.2,117.7-40.8-117.7h-37.6l-40.4,117.6-39.2-117.6h-100.4v18.3c-5.3-5.5-11.6-10.2-18.8-13.9-10.9-5.6-23.2-8.4-36.8-8.4-17.9,0-33.8,4.4-47.8,13.2s-25,20.8-33,36c-3.4,6.4-6,13.2-8,20.4-2-7.1-4.6-13.9-8-20.4-8-15.2-19.1-27.2-33.4-36s-30.3-13.2-48.2-13.2c-13.6,0-26.1,2.9-37.4,8.6-6.6,3.3-12.4,7.4-17.4,12.1V30h639.2ZM252.6,165.6c4.1-7.7,9.9-13.9,17.2-18.4,7.3-4.5,15.8-6.8,25.4-6.8s18.4,2.2,25.6,6.6,12.9,10.6,17.2,18.6c4.3,8,6.4,17.1,6.4,27.2,0,14.9-4.5,27.3-13.6,37.2s-20.9,14.8-35.6,14.8c-9.3,0-17.7-2.3-25.2-6.8s-13.3-10.7-17.4-18.4-6.2-16.8-6.2-27.2c0-10.1,2.1-19.1,6.2-26.8Zm-180-18.4c7.3-4.5,15.8-6.8,25.4-6.8s18.1,2.3,25.4,6.8c7.3,4.5,13.1,10.7,17.2,18.6,4.1,7.9,6.2,16.7,6.2,26.6,0,10.4-2.1,19.5-6.2,27.2s-9.8,13.9-17,18.4-15.6,6.8-25.2,6.8-18.1-2.3-25.6-6.8-13.2-10.7-17.2-18.4-6-16.7-6-26.8,2-19.5,6-27.2c4-7.7,9.7-13.9,17-18.4Z" style="fill: #fff; stroke-width: 0px;"/>
</svg>